<svg width="20" height="24" xmlns="http://www.w3.org/2000/svg"><path d="M11.348 1.76v16.816l6.093-6.328c.254-.273.557-.41.909-.41.351 0 .659.122.922.366.264.244.396.542.396.894a1.4 1.4 0 0 1-.352.937l-8.32 8.613c-.254.274-.561.41-.923.41-.361 0-.669-.136-.923-.41L.8 13.977a1.257 1.257 0 0 1-.35-.88c0-.37.136-.683.41-.937a1.19 1.19 0 0 1 .908-.366c.351.01.654.142.908.395l6.094 6.329V1.73c0-.332.117-.625.351-.878.234-.254.518-.391.85-.41.37-.02.693.102.966.366.274.263.41.58.41.952z" fill="#FCF9F0" fill-rule="evenodd"/></svg>